<svg width="667" height="165" viewBox="0 0 667 165" fill="none" xmlns="http://www.w3.org/2000/svg">
<path d="M186.784 121L166.807 51.1818H182.932L194.489 99.6932H195.068L207.818 51.1818H221.625L234.341 99.7955H234.955L246.511 51.1818H262.636L242.659 121H228.273L214.977 75.3523H214.432L201.17 121H186.784ZM288.503 122.023C283.116 122.023 278.48 120.932 274.594 118.75C270.73 116.545 267.753 113.432 265.662 109.409C263.571 105.364 262.526 100.58 262.526 95.0568C262.526 89.6705 263.571 84.9432 265.662 80.875C267.753 76.8068 270.696 73.6364 274.491 71.3636C278.31 69.0909 282.787 67.9545 287.923 67.9545C291.378 67.9545 294.594 68.5114 297.571 69.625C300.571 70.7159 303.185 72.3636 305.412 74.5682C307.662 76.7727 309.412 79.5455 310.662 82.8864C311.912 86.2045 312.537 90.0909 312.537 94.5455V98.5341H268.321V89.5341H298.866C298.866 87.4432 298.412 85.5909 297.503 83.9773C296.594 82.3636 295.332 81.1023 293.719 80.1932C292.128 79.2614 290.276 78.7955 288.162 78.7955C285.957 78.7955 284.003 79.3068 282.298 80.3295C280.616 81.3295 279.298 82.6818 278.344 84.3864C277.389 86.0682 276.901 87.9432 276.878 90.0114V98.5682C276.878 101.159 277.355 103.398 278.31 105.284C279.287 107.17 280.662 108.625 282.435 109.648C284.207 110.67 286.31 111.182 288.741 111.182C290.355 111.182 291.832 110.955 293.173 110.5C294.514 110.045 295.662 109.364 296.616 108.455C297.571 107.545 298.298 106.432 298.798 105.114L312.23 106C311.548 109.227 310.151 112.045 308.037 114.455C305.946 116.841 303.241 118.705 299.923 120.045C296.628 121.364 292.821 122.023 288.503 122.023ZM322.287 121V51.1818H336.81V77.4318H337.253C337.889 76.0227 338.81 74.5909 340.014 73.1364C341.241 71.6591 342.832 70.4318 344.787 69.4545C346.764 68.4545 349.219 67.9545 352.151 67.9545C355.969 67.9545 359.491 68.9545 362.719 70.9545C365.946 72.9318 368.526 75.9205 370.457 79.9205C372.389 83.8977 373.355 88.8864 373.355 94.8864C373.355 100.727 372.412 105.659 370.526 109.682C368.662 113.682 366.116 116.716 362.889 118.784C359.685 120.83 356.094 121.852 352.116 121.852C349.298 121.852 346.901 121.386 344.923 120.455C342.969 119.523 341.366 118.352 340.116 116.943C338.866 115.511 337.912 114.068 337.253 112.614H336.605V121H322.287ZM336.503 94.8182C336.503 97.9318 336.935 100.648 337.798 102.966C338.662 105.284 339.912 107.091 341.548 108.386C343.185 109.659 345.173 110.295 347.514 110.295C349.878 110.295 351.878 109.648 353.514 108.352C355.151 107.034 356.389 105.216 357.23 102.898C358.094 100.557 358.526 97.8636 358.526 94.8182C358.526 91.7955 358.105 89.1364 357.264 86.8409C356.423 84.5455 355.185 82.75 353.548 81.4545C351.912 80.1591 349.901 79.5114 347.514 79.5114C345.151 79.5114 343.151 80.1364 341.514 81.3864C339.901 82.6364 338.662 84.4091 337.798 86.7045C336.935 89 336.503 91.7045 336.503 94.8182Z" fill="black"/>
<path d="M387.455 121V51.1818H429.318V58.6818H395.909V82.2727H426.182V89.7727H395.909V121H387.455ZM460.136 122.091C455.409 122.091 451.261 120.966 447.693 118.716C444.148 116.466 441.375 113.318 439.375 109.273C437.398 105.227 436.409 100.5 436.409 95.0909C436.409 89.6364 437.398 84.875 439.375 80.8068C441.375 76.7386 444.148 73.5795 447.693 71.3295C451.261 69.0795 455.409 67.9545 460.136 67.9545C464.864 67.9545 469 69.0795 472.545 71.3295C476.114 73.5795 478.886 76.7386 480.864 80.8068C482.864 84.875 483.864 89.6364 483.864 95.0909C483.864 100.5 482.864 105.227 480.864 109.273C478.886 113.318 476.114 116.466 472.545 118.716C469 120.966 464.864 122.091 460.136 122.091ZM460.136 114.864C463.727 114.864 466.682 113.943 469 112.102C471.318 110.261 473.034 107.841 474.148 104.841C475.261 101.841 475.818 98.5909 475.818 95.0909C475.818 91.5909 475.261 88.3295 474.148 85.3068C473.034 82.2841 471.318 79.8409 469 77.9773C466.682 76.1136 463.727 75.1818 460.136 75.1818C456.545 75.1818 453.591 76.1136 451.273 77.9773C448.955 79.8409 447.239 82.2841 446.125 85.3068C445.011 88.3295 444.455 91.5909 444.455 95.0909C444.455 98.5909 445.011 101.841 446.125 104.841C447.239 107.841 448.955 110.261 451.273 112.102C453.591 113.943 456.545 114.864 460.136 114.864ZM496.145 121V68.6364H503.918V76.5455H504.463C505.418 73.9545 507.145 71.8523 509.645 70.2386C512.145 68.625 514.963 67.8182 518.099 67.8182C518.69 67.8182 519.429 67.8295 520.315 67.8523C521.202 67.875 521.872 67.9091 522.327 67.9545V76.1364C522.054 76.0682 521.429 75.9659 520.452 75.8295C519.497 75.6705 518.486 75.5909 517.418 75.5909C514.872 75.5909 512.599 76.125 510.599 77.1932C508.622 78.2386 507.054 79.6932 505.895 81.5568C504.759 83.3977 504.19 85.5 504.19 87.8636V121H496.145ZM531.864 121V68.6364H539.636V76.8182H540.318C541.409 74.0227 543.17 71.8523 545.602 70.3068C548.034 68.7386 550.955 67.9545 554.364 67.9545C557.818 67.9545 560.693 68.7386 562.989 70.3068C565.307 71.8523 567.114 74.0227 568.409 76.8182H568.955C570.295 74.1136 572.307 71.9659 574.989 70.375C577.67 68.7614 580.886 67.9545 584.636 67.9545C589.318 67.9545 593.148 69.4205 596.125 72.3523C599.102 75.2614 600.591 79.7955 600.591 85.9545V121H592.545V85.9545C592.545 82.0909 591.489 79.3295 589.375 77.6705C587.261 76.0114 584.773 75.1818 581.909 75.1818C578.227 75.1818 575.375 76.2955 573.352 78.5227C571.33 80.7273 570.318 83.5227 570.318 86.9091V121H562.136V85.1364C562.136 82.1591 561.17 79.7614 559.239 77.9432C557.307 76.1023 554.818 75.1818 551.773 75.1818C549.682 75.1818 547.727 75.7386 545.909 76.8523C544.114 77.9659 542.659 79.5114 541.545 81.4886C540.455 83.4432 539.909 85.7045 539.909 88.2727V121H531.864ZM652.392 80.3636L645.165 82.4091C644.71 81.2045 644.04 80.0341 643.153 78.8977C642.29 77.7386 641.108 76.7841 639.608 76.0341C638.108 75.2841 636.188 74.9091 633.847 74.9091C630.642 74.9091 627.972 75.6477 625.835 77.125C623.722 78.5795 622.665 80.4318 622.665 82.6818C622.665 84.6818 623.392 86.2614 624.847 87.4205C626.301 88.5795 628.574 89.5455 631.665 90.3182L639.438 92.2273C644.119 93.3636 647.608 95.1023 649.903 97.4432C652.199 99.7614 653.347 102.75 653.347 106.409C653.347 109.409 652.483 112.091 650.756 114.455C649.051 116.818 646.665 118.682 643.597 120.045C640.528 121.409 636.96 122.091 632.892 122.091C627.551 122.091 623.131 120.932 619.631 118.614C616.131 116.295 613.915 112.909 612.983 108.455L620.619 106.545C621.347 109.364 622.722 111.477 624.744 112.886C626.79 114.295 629.46 115 632.756 115C636.506 115 639.483 114.205 641.688 112.614C643.915 111 645.028 109.068 645.028 106.818C645.028 105 644.392 103.477 643.119 102.25C641.847 101 639.892 100.068 637.256 99.4545L628.528 97.4091C623.733 96.2727 620.21 94.5114 617.96 92.125C615.733 89.7159 614.619 86.7045 614.619 83.0909C614.619 80.1364 615.449 77.5227 617.108 75.25C618.79 72.9773 621.074 71.1932 623.96 69.8977C626.869 68.6023 630.165 67.9545 633.847 67.9545C639.028 67.9545 643.097 69.0909 646.051 71.3636C649.028 73.6364 651.142 76.6364 652.392 80.3636Z" fill="#3282DE"/>
<path fill-rule="evenodd" clip-rule="evenodd" d="M113.857 84.6697C113.857 74.6435 113.361 63.4329 112.468 54.8538C112.257 50.319 111.267 45.8597 109.545 41.6863C108.672 40.3183 107.431 39.2459 105.977 38.6017C103.194 37.336 100.262 36.4548 97.2583 35.9806C96.8134 35.9181 96.3621 36.0318 95.9943 36.299C95.6264 36.5662 95.3691 36.9673 95.2734 37.4225C95.2033 37.8928 95.3152 38.3727 95.5848 38.7576C95.8544 39.1425 96.2598 39.4012 96.7124 39.4772C99.0083 39.8926 101.238 40.5448 103.402 41.434C104.593 41.8151 105.65 42.5669 106.429 43.5917C107.768 47.3097 108.503 51.2388 108.607 55.2091C109.351 63.6904 109.401 74.798 109.401 84.716C109.401 94.6444 109.649 104.31 109.401 112.894C109.451 117.78 109.203 122.648 108.657 127.499C108.657 128.117 108.111 128.683 108.061 129.043C97.9431 131.618 87.5619 132.9 77.1461 132.844C62.4293 133.481 47.6891 133.223 33.0014 132.071C31.4631 132.071 29.9744 131.144 29.4335 131.299C29.2088 130.526 29.0429 129.735 28.9373 128.935C28.9373 127.133 28.5899 125.284 28.4907 124.105C28.0937 119.27 27.0516 96.7506 26.3122 77.0586C25.7168 61.3267 25.2205 47.3972 25.3694 45.8008V43.741C27.0038 42.5406 28.9247 41.8298 30.9222 41.6863C32.9634 41.4804 35.0112 41.3945 37.0656 41.4289C36.7149 42.5274 36.4337 43.6432 36.222 44.7761C36.1307 45.5783 36.1307 46.3889 36.222 47.1912C36.222 48.8854 36.6686 51.0946 36.6686 51.0946C36.7601 51.7456 37.0672 52.3433 37.5372 52.785C38.0072 53.2266 38.6106 53.4847 39.244 53.5149C39.244 53.5149 53.1633 53.8238 65.9958 53.8238C73.1812 53.8238 80.0689 53.8238 83.9345 53.4119C84.3211 53.3603 84.6728 53.1534 84.9141 52.8357C85.1553 52.5179 85.2669 52.1147 85.2247 51.7125C85.2185 51.5118 85.1733 51.3144 85.0919 51.1323C85.0105 50.9501 84.8946 50.7868 84.751 50.6522C84.6073 50.5176 84.439 50.4144 84.2561 50.3488C84.0732 50.2833 83.8794 50.2567 83.6864 50.2706C80.6594 50.2706 75.8062 50.2706 70.4073 49.9102C59.7532 49.3952 46.9703 48.4735 41.7748 48.0615V46.0017C41.9733 45.0679 42.2197 44.1444 42.5142 43.2312C42.7623 42.4725 43.0931 41.7516 43.5066 41.0684C44.3895 39.8097 45.5636 38.802 46.9207 38.1383C49.442 37.0383 52.0661 36.2117 54.7512 35.6717L56.3391 35.3112C56.7445 35.2529 57.134 35.1085 57.4832 34.887C57.8324 34.6655 58.1338 34.3716 58.3687 34.0238C58.6344 33.2955 58.6344 32.4915 58.3687 31.7631L57.674 27.8598C57.6844 27.0853 57.8535 26.322 58.17 25.6206C58.4866 24.9192 58.9434 24.2957 59.51 23.7916C60.964 22.5815 62.6512 21.7061 64.4624 21.2271C65.3837 20.9434 66.3646 20.9434 67.286 21.2271C68.2907 21.5746 69.2056 22.1559 69.9607 22.9265C70.9432 24.0079 71.6429 25.3313 71.9952 26.7784C72.2433 28.4812 72.3426 30.1942 72.2929 31.9176C72.2779 32.4789 72.4689 33.0251 72.8273 33.4458C73.1857 33.8664 73.6846 34.1301 74.2233 34.1834C76.0759 34.3722 77.8921 34.7499 79.6719 35.3163C81.4285 35.8055 83.1058 36.5883 84.6243 37.6233C85.8152 38.473 86.6737 39.7347 87.0558 41.1765C87.6413 42.9119 87.9887 44.7297 88.0979 46.5733C88.08 46.8138 88.1103 47.0555 88.1868 47.2833C88.2632 47.5112 88.3842 47.7201 88.5422 47.8971C88.7001 48.0741 88.8916 48.2153 89.1047 48.3119C89.3177 48.4084 89.5476 48.4583 89.7801 48.4583C90.0125 48.4583 90.2425 48.4084 90.4555 48.3119C90.6685 48.2153 90.86 48.0741 91.018 47.8971C91.1759 47.7201 91.2969 47.5112 91.3734 47.2833C91.4498 47.0555 91.4801 46.8138 91.4623 46.5733C91.5766 44.0118 91.2403 41.4501 90.4698 39.0137C89.821 37.1977 88.6673 35.6223 87.155 34.4873C85.3451 33.1948 83.3777 32.1575 81.3045 31.4027C79.9303 30.9191 78.5238 30.5405 77.0964 30.2698C77.19 28.386 77.0059 26.4984 76.5506 24.6722C76.0233 22.881 75.1257 21.2309 73.9206 19.8368C72.6521 18.3719 71.0767 17.2285 69.3156 16.4947C67.4348 15.6296 65.3457 15.3618 63.3211 15.7223C60.0508 16.5187 57.0841 18.3099 54.8008 20.8667C53.0734 22.8091 52.1318 25.3663 52.1708 28.0091C52.1212 28.7644 52.1212 29.5196 52.1708 30.2749C49.3824 30.837 46.6709 31.7518 44.0971 32.999C41.8927 34.0632 39.9841 35.6895 38.5493 37.7263C38.576 37.8622 38.576 38.0024 38.5493 38.1383C35.4048 38.0544 32.2585 38.2093 29.1358 38.6017C27.1806 38.9622 25.3198 39.7501 23.6872 40.9191C23.145 41.3351 22.7312 41.9058 22.4962 42.5618C22.215 43.499 22.0496 44.4602 22 45.4455V77.1668C22.2977 97.008 22.794 119.63 23.0917 124.517C23.1248 127.047 23.3894 129.548 23.8857 132.02C24.1884 133.508 24.8533 134.888 25.821 136.031C27.5429 137.061 29.4782 137.659 31.4631 137.782C43.9483 138.936 56.488 139.363 69.0178 139.064C85.8648 138.704 103.109 137.159 110.835 133.925C111.71 133.554 112.418 132.856 112.82 131.968C113.837 128.93 114.339 125.727 114.304 122.509C114.85 112.946 114.155 97.9865 113.857 84.6697Z" fill="#020202"/>
<path fill-rule="evenodd" clip-rule="evenodd" d="M78.431 96.0808C78.1112 95.8516 77.7412 95.709 77.3548 95.6659C76.9683 95.6229 76.5776 95.6807 76.2181 95.8342C75.8587 95.9877 75.5419 96.232 75.2966 96.5449C75.0513 96.8577 74.8852 97.2293 74.8135 97.6257C73.96 101.23 72.9196 104.778 71.6922 108.27C70.5819 111.621 69.0144 114.789 67.0376 117.678V118.09H56.3835C52.5901 118.15 48.7977 117.909 45.0397 117.369C44.2398 116.916 43.4108 116.52 42.5585 116.185C41.7199 111.406 41.0748 104.567 40.4297 97.2137C40.0327 92.8418 39.5365 87.7025 39.1891 83.279C38.5507 75.5186 38.337 67.7268 38.549 59.9412C38.5645 59.5289 38.4304 59.1255 38.1731 58.8108C37.9158 58.4962 37.5541 58.2931 37.1596 58.2419C36.7601 58.2145 36.3662 58.3499 36.0614 58.6191C35.7565 58.8883 35.5648 59.2702 35.527 59.6837C34.3612 71.5203 34.0958 83.4337 34.733 95.3135C35.0605 103.306 35.9736 111.262 37.4623 119.115C37.629 119.709 37.9258 120.255 38.3295 120.711C38.7332 121.166 39.2329 121.519 39.7896 121.741C41.179 122.205 42.5982 122.548 44.0472 122.771C47.2033 123.039 50.3576 123.039 53.5103 122.771C74.4165 121.947 71.593 122.05 74.7639 121.432C76.4378 121.14 78.0903 120.763 79.7212 120.299C84.0058 119.082 88.0598 117.118 91.7101 114.49C94.3302 112.637 96.3896 110.052 97.655 107.034C100.368 100.2 101.571 92.8216 101.173 85.4418V79.3705C101.173 77.3673 100.776 75.2612 100.528 73.3043C99.8334 67.4956 98.8906 62.5624 98.3447 59.3748C98.326 59.145 98.2637 58.9213 98.1615 58.7166C98.0592 58.5119 97.919 58.3301 97.7488 58.1818C97.5787 58.0334 97.382 57.9215 97.17 57.8522C96.958 57.783 96.735 57.7579 96.5136 57.7784C96.2893 57.7908 96.0698 57.8509 95.8688 57.9551C95.6678 58.0593 95.4896 58.2053 95.3453 58.384C95.201 58.5627 95.0937 58.7703 95.0301 58.994C94.9664 59.2176 94.9478 59.4524 94.9753 59.6837V73.7678C94.9753 75.6731 94.9753 77.6815 95.2234 79.731C95.4716 81.7908 95.4716 83.6961 95.6701 85.6993C97.1587 100.144 96.2655 99.3199 94.2856 105.489C93.2633 107.755 91.5067 109.568 89.3332 110.633C85.9664 112.633 82.2966 114.024 78.4806 114.748L75.012 115.366C75.4586 114.336 75.8556 113.289 76.2029 112.225C77.4137 108.668 78.3549 105.036 79.0265 101.328C80.8427 101.967 82.7581 102.245 84.6736 102.152C87.6181 102.073 90.5039 101.28 93.0996 99.8349C93.4989 99.6345 93.8061 99.2789 93.9547 98.8452C94.1033 98.4115 94.0813 97.9346 93.8935 97.5176C93.8022 97.3018 93.6699 97.1074 93.5044 96.946C93.339 96.7847 93.1438 96.6596 92.9307 96.5783C92.7175 96.4971 92.4908 96.4613 92.264 96.4731C92.0372 96.485 91.8151 96.5442 91.6109 96.6473C89.4573 97.6772 87.0952 98.151 84.7232 98.0377C82.4837 98.0581 80.2906 97.376 78.431 96.0808Z" fill="#3282DE"/>
<path fill-rule="evenodd" clip-rule="evenodd" d="M83.1405 68.3203C78.4429 67.0196 73.6572 66.09 68.8243 65.5396C65.5259 65.2759 62.2129 65.2759 58.9145 65.5396L51.6299 66.621L48.459 67.1359C46.5237 67.1359 46.6229 68.3203 47.1191 69.2472C47.0866 69.3756 47.0844 69.5102 47.1127 69.6396C47.1411 69.7691 47.1992 69.8895 47.282 69.9906C47.3648 70.0917 47.47 70.1706 47.5885 70.2205C47.707 70.2704 47.8354 70.2898 47.9627 70.2771L51.2875 70.6376L59.0634 71.2041H75.31C78.0392 71.2041 80.2673 71.2041 82.3465 71.5594C82.5684 71.5958 82.7951 71.5859 83.0132 71.5302C83.2313 71.4745 83.4365 71.3741 83.6168 71.235C83.797 71.0959 83.9487 70.9209 84.0629 70.7201C84.1771 70.5194 84.2515 70.297 84.2818 70.066C84.3003 69.6858 84.1989 69.3098 83.993 68.9948C83.787 68.6798 83.4877 68.443 83.1405 68.3203ZM73.2308 89.346C79.2252 88.934 84.0784 88.2131 84.4754 88.3675C84.6924 88.4885 84.9317 88.5602 85.1774 88.5779C85.4232 88.5956 85.6697 88.5588 85.9007 88.47C86.1317 88.3812 86.3419 88.2424 86.5172 88.0628C86.6926 87.8833 86.8291 87.6671 86.9178 87.4286C87.0065 87.1901 87.0452 86.9348 87.0315 86.6795C87.0178 86.4243 86.9519 86.175 86.8382 85.9482C86.7246 85.7214 86.5657 85.5223 86.3722 85.3641C86.1787 85.2059 85.955 85.0922 85.7159 85.0306C81.5845 84.3287 77.4145 83.8987 73.2308 83.7432H68.2784C66.6905 83.7432 64.8544 83.7432 63.3211 84.0007C58.3687 84.4642 54.0068 85.2881 51.4314 85.7516C51.033 85.7781 50.6602 85.9643 50.3916 86.2708C50.1231 86.5774 49.9799 86.9802 49.9923 87.3943C50.0108 87.7068 50.1203 88.0061 50.3064 88.2526C50.4925 88.4991 50.7464 88.681 51.0344 88.7744C51.2329 88.8362 51.4314 88.8568 51.6299 88.8362C54.2549 88.8362 58.6168 89.4541 63.4699 89.7116H68.4223L73.2308 89.346Z" fill="#3282DE"/>
</svg>
